<?xml version="1.0" encoding="UTF-8" standalone="no"?>
<svg
   xmlns:dc="http://purl.org/dc/elements/1.1/"
   xmlns:cc="http://creativecommons.org/ns#"
   xmlns:rdf="http://www.w3.org/1999/02/22-rdf-syntax-ns#"
   xmlns:svg="http://www.w3.org/2000/svg"
   xmlns="http://www.w3.org/2000/svg"
   xmlns:sodipodi="http://sodipodi.sourceforge.net/DTD/sodipodi-0.dtd"
   xmlns:inkscape="http://www.inkscape.org/namespaces/inkscape"
   version="1.1"
   x="0px"
   y="0px"
   viewBox="0 0 86.000008 76.000008"
   id="svg10"
   sodipodi:docname="noun_927435_cc.svg"
   width="86.000008"
   height="76.000008"
   inkscape:version="0.92.2 5c3e80d, 2017-08-06">
  <metadata
     id="metadata16">
    <rdf:RDF>
      <cc:Work
         rdf:about="">
        <dc:format>image/svg+xml</dc:format>
        <dc:type
           rdf:resource="http://purl.org/dc/dcmitype/StillImage" />
      </cc:Work>
    </rdf:RDF>
  </metadata>
  <defs
     id="defs14" />
  <sodipodi:namedview
     pagecolor="#ffffff"
     bordercolor="#666666"
     borderopacity="1"
     objecttolerance="10"
     gridtolerance="10"
     guidetolerance="10"
     inkscape:pageopacity="0"
     inkscape:pageshadow="2"
     inkscape:window-width="1191"
     inkscape:window-height="801"
     id="namedview12"
     showgrid="false"
     inkscape:zoom="3.776"
     inkscape:cx="43.000002"
     inkscape:cy="25.50002"
     inkscape:window-x="0"
     inkscape:window-y="0"
     inkscape:window-maximized="0"
     inkscape:current-layer="svg10" />
  <g
     transform="translate(-6.999998,-964.36219)"
     id="g4">
    <path
       style="color:#000000;text-indent:0;text-transform:none;direction:ltr;baseline-shift:baseline;display:inline;overflow:visible;visibility:visible;fill:#000000;fill-opacity:1;stroke:none;enable-background:accumulate"
       d="m 8.999998,964.36219 c -1.1045,0 -2,0.89543 -2,2 0,1.10457 0.8955,2 2,2 h 10.6562 l 3.5,8.71875 11.6876,29.25006 -4.6876,11.2499 c -0.5137,1.2112 0.5282,2.7829 1.8438,2.7813 h 50 c 1.1046,0 2,-0.8954 2,-2 0,-1.1046 -0.8954,-2 -2,-2 h -47 l 3.8438,-9.25 c 0.1922,-0.4751 0.1922,-1.0249 0,-1.5 l -12,-30.00001 -4,-10 c -0.2954,-0.73004 -1.0563,-1.24591 -1.8438,-1.25 z m 21,12 12,29.00001 45,-3 6.000004,-26.00001 z m 12,50.00001 c -3.8659,0 -7,3.134 -7,7 0,3.866 3.1341,7 7,7 3.866,0 7,-3.134 7,-7 0,-3.866 -3.134,-7 -7,-7 z m 30,0 c -3.866,0 -7,3.134 -7,7 0,3.866 3.134,7 7,7 3.8659,0 7,-3.134 7,-7 0,-3.866 -3.1341,-7 -7,-7 z"
       marker="none"
       visibility="visible"
       display="inline"
       overflow="visible"
       id="path2"
       inkscape:connector-curvature="0" />
  </g>
</svg>
